<?xml version="1.0" encoding="iso-8859-1"?>
<svg version="1.1" id="Capa_1" xmlns="http://www.w3.org/2000/svg" xmlns:xlink="http://www.w3.org/1999/xlink" x="0px"
	y="0px" viewBox="0 0 512.001 512.001" style="enable-background:new 0 0 512.001 512.001;" xml:space="preserve">
	<path style="fill:#EFEDEE;" d="M325.015,11.634H117.847l-37.674,90.41L0,129.481v326.029c0,24.778,20.079,44.857,44.857,44.857
		h280.158c24.778,0,44.857-20.079,44.857-44.857V56.491C369.872,31.713,349.793,11.634,325.015,11.634z" />
	<path style="fill:#D4D2D3;" d="M0,129.481h88.431c16.246,0,29.416-13.17,29.416-29.416V11.634L0,129.481z" />
	<path style="fill:#465059;" d="M318.805,86.404H166.527c-4.267,0-7.726-3.459-7.726-7.726c0-4.267,3.459-7.726,7.726-7.726h152.278
	c4.267,0,7.726,3.459,7.726,7.726C326.531,82.944,323.072,86.404,318.805,86.404z" />
	<path style="fill:#D4D2D3;" d="M369.872,144.971c-20.05-9.127-41.996-13.941-64.684-13.941c-41.727,0-80.957,16.249-110.463,45.755
		c-60.909,60.909-60.909,160.016,0,220.925c29.505,29.505,68.735,45.755,110.462,45.755c22.689,0,44.635-4.815,64.684-13.942V144.971
		H369.872z" />
	<g>
		<path style="fill:#465059;" d="M241.665,209.524H50.516c-4.267,0-7.726-3.459-7.726-7.726s3.459-7.726,7.726-7.726h191.149
		c4.267,0,7.726,3.459,7.726,7.726S245.932,209.524,241.665,209.524z" />
		<path style="fill:#465059;" d="M241.665,263.727H50.516c-4.267,0-7.726-3.459-7.726-7.726c0-4.267,3.459-7.726,7.726-7.726h191.149
		c4.267,0,7.726,3.459,7.726,7.726C249.391,260.267,245.932,263.727,241.665,263.727z" />
		<path style="fill:#465059;" d="M241.665,317.93H50.516c-4.267,0-7.726-3.459-7.726-7.726c0-4.267,3.459-7.726,7.726-7.726h191.149
		c4.267,0,7.726,3.459,7.726,7.726C249.391,314.47,245.932,317.93,241.665,317.93z" />
		<path style="fill:#465059;" d="M241.665,372.134H50.516c-4.267,0-7.726-3.459-7.726-7.726c0-4.267,3.459-7.726,7.726-7.726h191.149
		c4.267,0,7.726,3.459,7.726,7.726C249.391,368.674,245.932,372.134,241.665,372.134z" />
		<path style="fill:#465059;" d="M425.318,375.208c61.879,26.1,111.028,68.677,73.768,105.938s-79.838-11.889-105.938-73.768
		L425.318,375.208z" />
	</g>
	<ellipse transform="matrix(-0.7071 -0.7071 0.7071 -0.7071 406.4748 920.0754)" style="fill:#BAB8B9;" cx="393.791"
		cy="375.854" rx="27.46" ry="37.514" />
	<g>
		<path style="fill:#3C474D;" d="M241.665,194.071h-61.871c-3.712,4.988-7.085,10.15-10.124,15.453h71.994
		c4.267,0,7.726-3.459,7.726-7.726S245.932,194.071,241.665,194.071z" />
		<path style="fill:#3C474D;" d="M241.665,248.274h-87.71c-1.306,5.105-2.354,10.262-3.138,15.453h90.848
		c4.267,0,7.726-3.459,7.726-7.726C249.391,251.733,245.932,248.274,241.665,248.274z" />
		<path style="fill:#3C474D;" d="M241.665,302.477h-91.882c0.503,5.179,1.268,10.336,2.285,15.453h89.596
		c4.267,0,7.726-3.459,7.726-7.726C249.39,305.936,245.932,302.477,241.665,302.477z" />
		<path style="fill:#3C474D;" d="M241.665,356.681h-76.427c2.615,5.28,5.553,10.438,8.8,15.453h67.627
		c4.267,0,7.726-3.459,7.726-7.726C249.391,360.14,245.932,356.681,241.665,356.681z" />
	</g>
	<circle style="fill:#DA5B65;" cx="305.191" cy="287.246" r="125.311" />
	<circle style="fill:#51D7F7;" cx="305.191" cy="287.246" r="86.71" />
	<path style="fill:#49C3E0;" d="M264.476,338.259c-33.863-33.863-33.863-88.767,0-122.63c3.94-3.94,8.176-7.403,12.62-10.426
	c-12.138,4.145-23.542,11.047-33.223,20.728c-33.863,33.863-33.863,88.767,0,122.63c29.923,29.923,76.264,33.385,110.01,10.426
	C323.566,369.343,288.659,362.441,264.476,338.259z" />
	<g>
		<path style="fill:#3A484A;" d="M272.167,330.903c-1.977,0-3.955-0.754-5.463-2.263l-6.24-6.24c-3.017-3.017-3.017-7.909,0-10.926
		s7.91-3.017,10.926,0l6.24,6.24c3.017,3.017,3.017,7.909,0,10.926C276.121,330.149,274.144,330.903,272.167,330.903z" />
		<path style="fill:#3A484A;" d="M341.118,261.952c-1.977,0-3.955-0.754-5.463-2.263l-6.24-6.24c-3.017-3.017-3.017-7.909,0-10.926
		s7.91-3.017,10.926,0l6.24,6.24c3.017,3.017,3.017,7.909,0,10.926C345.073,261.198,343.095,261.952,341.118,261.952z" />
		<path style="fill:#3A484A;" d="M298.704,304.536c-0.507,0-1.015-0.016-1.524-0.051c-4.258-0.286-7.477-3.969-7.191-8.227
		c0.286-4.258,3.961-7.479,8.227-7.191c2.252,0.153,4.551-0.759,6.292-2.499c1.74-1.74,2.651-4.033,2.499-6.292
		c-0.286-4.258,2.933-7.941,7.191-8.227c4.255-0.286,7.941,2.934,8.227,7.191c0.451,6.709-2.096,13.362-6.99,18.255
		C310.914,302.018,304.887,304.536,298.704,304.536z" />
	</g>
	<path style="fill:#465059;" d="M318.805,457.387H207.928c-4.267,0-7.726-3.459-7.726-7.726c0-4.267,3.459-7.726,7.726-7.726h110.877
	c4.267,0,7.726,3.459,7.726,7.726C326.531,453.928,323.072,457.387,318.805,457.387z" />
</svg>