<svg width="512" height="512" viewBox="0 0 120 120" fill="none" xmlns="http://www.w3.org/2000/svg">
<path d="M53 4.04145C57.3316 1.54059 62.6684 1.54059 67 4.04145L104.962 25.9585C109.293 28.4594 111.962 33.0812 111.962 38.0829V81.9171C111.962 86.9188 109.293 91.5406 104.962 94.0415L67 115.959C62.6684 118.459 57.3316 118.459 53 115.959L15.0385 94.0415C10.7069 91.5406 8.03848 86.9188 8.03848 81.9171V38.0829C8.03848 33.0812 10.7069 28.4594 15.0385 25.9585L53 4.04145Z" fill="white"/>
<path d="M53 14.0415C57.3316 11.5406 62.6684 11.5406 67 14.0415L96.3013 30.9585C100.633 33.4594 103.301 38.0812 103.301 43.0829V76.9171C103.301 81.9188 100.633 86.5406 96.3013 89.0415L67 105.959C62.6684 108.459 57.3316 108.459 53 105.959L23.6987 89.0415C19.3671 86.5406 16.6987 81.9188 16.6987 76.9171V43.0829C16.6987 38.0812 19.3671 33.4594 23.6987 30.9585L53 14.0415Z" fill="url(#paint0_linear)"/>
<defs>
<linearGradient id="paint0_linear" x1="110.275" y1="27.451" x2="10.0048" y2="90.7231" gradientUnits="userSpaceOnUse">
<stop stop-color="#539EFB"/>
<stop offset="0.0001" stop-color="#605FF9"/>
<stop offset="1" stop-color="#23D2E3"/>
</linearGradient>
</defs>
</svg>
