<svg width="100" height="91" viewBox="0 0 100 91" fill="none" xmlns="http://www.w3.org/2000/svg">
<path d="M100 45.5102C100 38.874 91.704 32.585 78.9849 28.6849C81.9201 15.6984 80.6156 5.36642 74.8675 2.05854C73.5426 1.28261 71.9935 0.915072 70.3017 0.915072V5.46851C71.2393 5.46851 71.9935 5.65228 72.6254 5.99941C75.3975 7.59209 76.6001 13.6565 75.6625 21.4566C75.4382 23.376 75.0713 25.3975 74.6229 27.4598C70.6278 26.4797 66.2658 25.7242 61.6796 25.2341C58.9278 21.4566 56.0742 18.0262 53.2002 15.0246C59.8451 8.83765 66.0823 5.44809 70.3221 5.44809V0.894653C64.7167 0.894653 57.3787 4.89678 49.9592 11.8392C42.5397 4.93762 35.2018 0.97633 29.5964 0.97633V5.52977C33.8157 5.52977 40.0734 8.89891 46.7183 15.045C43.8647 18.0466 41.011 21.4566 38.3 25.2341C33.6934 25.7242 29.3314 26.4797 25.3363 27.4802C24.8675 25.4383 24.521 23.4577 24.2764 21.5587C23.3184 13.7586 24.5006 7.69418 27.2523 6.08108C27.8638 5.71354 28.6588 5.55019 29.5964 5.55019V0.996748C27.8842 0.996748 26.3351 1.36429 24.9898 2.14021C19.2621 5.44809 17.978 15.7597 20.9336 28.7053C8.2552 32.6258 0 38.8944 0 45.5102C0 52.1464 8.29596 58.4354 21.0151 62.3355C18.0799 75.3219 19.3844 85.654 25.1325 88.9618C26.4574 89.7378 28.0065 90.1053 29.7187 90.1053C35.3241 90.1053 42.662 86.1032 50.0815 79.1607C57.501 86.0623 64.839 90.0236 70.4443 90.0236C72.1565 90.0236 73.7057 89.6561 75.051 88.8802C80.7786 85.5723 82.0628 75.2607 79.1072 62.315C91.7448 58.415 100 52.126 100 45.5102ZM73.4611 31.8907C72.7069 34.5248 71.7693 37.2405 70.7093 39.9562C69.8736 38.3227 68.9971 36.6892 68.0391 35.0557C67.1015 33.4221 66.1027 31.8295 65.104 30.2776C67.9984 30.7064 70.7909 31.2373 73.4611 31.8907ZM64.1256 53.637C62.5357 56.3935 60.905 59.0072 59.2132 61.437C56.1761 61.7025 53.0982 61.8454 50 61.8454C46.9221 61.8454 43.8443 61.7025 40.8276 61.4574C39.1358 59.0276 37.4847 56.4344 35.8948 53.6982C34.3457 51.0233 32.9393 48.3076 31.6551 45.5714C32.9189 42.8353 34.3457 40.0992 35.8744 37.4243C37.4643 34.6677 39.095 32.0541 40.7868 29.6242C43.8239 29.3588 46.9018 29.2158 50 29.2158C53.0779 29.2158 56.1557 29.3588 59.1724 29.6038C60.8642 32.0336 62.5153 34.6269 64.1052 37.363C65.6543 40.0379 67.0607 42.7536 68.3449 45.4898C67.0607 48.2259 65.6543 50.9621 64.1256 53.637ZM70.7093 50.9825C71.81 53.7186 72.7477 56.4548 73.5222 59.1093C70.852 59.7627 68.0391 60.314 65.1243 60.7428C66.1231 59.1705 67.1219 57.5574 68.0595 55.9035C68.9972 54.2699 69.8736 52.616 70.7093 50.9825ZM50.0408 72.7696C48.1451 70.8093 46.2495 68.6245 44.3742 66.2355C46.2087 66.3172 48.084 66.3784 49.9796 66.3784C51.8956 66.3784 53.7913 66.3376 55.6461 66.2355C53.8117 68.6245 51.916 70.8093 50.0408 72.7696ZM34.8757 60.7428C31.9812 60.314 29.1887 59.7831 26.5185 59.1297C27.2727 56.4956 28.2104 53.7799 29.2703 51.0642C30.106 52.6977 30.9825 54.3312 31.9405 55.9647C32.8985 57.5982 33.8769 59.1909 34.8757 60.7428ZM49.9389 18.2508C51.8345 20.211 53.7301 22.3959 55.6054 24.7849C53.7709 24.7032 51.8956 24.642 50 24.642C48.084 24.642 46.1883 24.6828 44.3335 24.7849C46.168 22.3959 48.0636 20.211 49.9389 18.2508ZM34.8553 30.2776C33.8565 31.8499 32.8577 33.463 31.9201 35.1169C30.9825 36.7504 30.106 38.384 29.2703 40.0175C28.1696 37.2813 27.232 34.5452 26.4574 31.8907C29.1276 31.2577 31.9405 30.7064 34.8553 30.2776ZM16.4085 55.8422C9.19283 52.7589 4.52507 48.716 4.52507 45.5102C4.52507 42.3044 9.19283 38.241 16.4085 35.1782C18.1614 34.4227 20.0775 33.7488 22.0546 33.1159C23.2165 37.118 24.7452 41.2835 26.6408 45.551C24.7656 49.7982 23.2572 53.9432 22.1158 57.9249C20.0978 57.292 18.1818 56.5977 16.4085 55.8422ZM27.3746 85.021C24.6025 83.4283 23.3999 77.3638 24.3375 69.5638C24.5618 67.6444 24.9287 65.6229 25.3771 63.5606C29.3722 64.5407 33.7342 65.2962 38.3204 65.7863C41.0722 69.5638 43.9258 72.9942 46.7998 75.9958C40.1549 82.1827 33.9177 85.5723 29.6779 85.5723C28.7607 85.5519 27.9861 85.3681 27.3746 85.021ZM75.7236 69.4617C76.6816 77.2618 75.4994 83.3262 72.7476 84.9393C72.1362 85.3068 71.3412 85.4702 70.4036 85.4702C66.1843 85.4702 59.9266 82.1011 53.2817 75.9549C56.1354 72.9533 58.989 69.5434 61.7 65.7659C66.3066 65.2758 70.6686 64.5203 74.6637 63.5198C75.1325 65.5821 75.4994 67.5627 75.7236 69.4617ZM83.5711 55.8422C81.8182 56.5977 79.9022 57.2715 77.925 57.9045C76.7631 53.9024 75.2344 49.7369 73.3388 45.4694C75.214 41.2222 76.7224 37.0771 77.8638 33.0954C79.8818 33.7284 81.7978 34.4227 83.5915 35.1782C90.8072 38.2614 95.4749 42.3044 95.4749 45.5102C95.4545 48.716 90.7868 52.7794 83.5711 55.8422Z" fill="white"/>
<path d="M49.9797 54.8418C55.1243 54.8418 59.2949 50.6639 59.2949 45.5103C59.2949 40.3566 55.1243 36.1788 49.9797 36.1788C44.8351 36.1788 40.6646 40.3566 40.6646 45.5103C40.6646 50.6639 44.8351 54.8418 49.9797 54.8418Z" fill="white"/>
</svg>
